<?xml version="1.0" encoding="utf-8"?>
<!-- Generator: Adobe Illustrator 23.0.4, SVG Export Plug-In . SVG Version: 6.00 Build 0)  -->
<svg version="1.1" id="whatsapp" xmlns="http://www.w3.org/2000/svg" xmlns:xlink="http://www.w3.org/1999/xlink" x="0px" y="0px"
	 viewBox="0 0 104.5 104.5" style="enable-background:new 0 0 104.5 104.5;" xml:space="preserve">
<style type="text/css">
	.st0{fill:#FFFFFF;}
</style>
<path id="XMLID_2_" class="st0" d="M99,13.6c-1.1-3.9-4.2-7-8.1-8.1c-25.3-7.3-52-7.3-77.3,0c-3.9,1.1-7,4.2-8.1,8.1
	c-7.3,25.3-7.3,52,0,77.3c1.1,3.9,4.2,7,8.1,8.1c12.6,3.6,25.6,5.5,38.7,5.5c13,0,26-1.8,38.7-5.5c3.9-1.1,7-4.2,8.1-8.1
	C106.3,65.6,106.3,38.9,99,13.6z M92.3,89c-0.5,1.6-1.7,2.9-3.3,3.3c-24,6.9-49.4,6.9-73.5,0c-1.6-0.5-2.9-1.7-3.3-3.3
	c-6.9-24-6.9-49.4,0-73.5c0.5-1.6,1.7-2.9,3.3-3.3C27.5,8.7,39.9,7,52.2,7S76.9,8.7,89,12.2c1.6,0.5,2.9,1.7,3.3,3.3
	C99.2,39.5,99.2,64.9,92.3,89z"/>
<path class="st0" d="M19.1,85.4l6.1-17.9c-2.8-4.8-4.4-10.4-4.4-16c0-17.5,14.4-31.8,32-31.8c17.6,0,32,14.2,32,31.8
	c0,17.5-14.4,31.8-32,31.8c-5.3,0-10.5-1.3-15.1-3.7L19.1,85.4z M38.6,71.9l0.4,0.3c4.1,2.7,8.9,4.1,13.8,4.1
	c13.8,0,25.1-11.1,25.1-24.9c0-13.7-11.2-24.9-25.1-24.9c-13.8,0-25.1,11.2-25.1,24.9c0,5.3,1.6,10.3,4.8,14.6l0.3,0.4L30,74.6
	L38.6,71.9z M61.2,66.9c-1,0-2.7-0.3-7.8-2.2c-4.8-1.9-9.5-6-13.3-11.5C40.1,53.1,40,53,40,53c-0.8-1-3.3-4.6-3.3-8.4
	c0-3.9,2-5.9,2.8-6.8l0.1-0.2c0.9-1,2.5-1.2,2.8-1.3c0,0,0.9-0.1,1.4-0.1c0.9,0,1.8,0.2,2.6,2.1l0.8,2c0.6,1.4,1.4,3.3,1.5,3.5
	c0.4,0.8,0.4,1.5,0.1,2.2l-0.1,0.2c-0.2,0.4-0.4,0.8-0.8,1.3c-0.1,0.1-0.3,0.3-0.4,0.4c-0.3,0.3-0.6,0.7-0.8,0.9
	c-0.1,0.1-0.2,0.2-0.2,0.2c0,0,0,0,0,0.1c0.5,0.9,2,3.2,4,5c2.3,2,4.3,2.9,5.3,3.3c0.2,0.1,0.4,0.2,0.5,0.2c0.3,0.1,0.4,0.1,0.4,0.1
	c0,0,0,0,0.1-0.1c0.5-0.5,1.9-2.2,2.3-2.9c1-1.4,2.3-1,2.9-0.8c0.8,0.3,4.5,2.1,5.3,2.5l0.4,0.2c0.6,0.3,1.1,0.6,1.5,1.1l0,0.1
	c0.4,0.8,0.2,2.6-0.4,4.4c-0.8,2.3-4.4,4.1-6,4.2c-0.2,0-0.3,0.1-0.5,0.1C62.1,66.8,61.7,66.9,61.2,66.9z"/>
</svg>
