<?xml version="1.0" encoding="utf-8"?>
<!-- Generator: Adobe Illustrator 27.0.0, SVG Export Plug-In . SVG Version: 6.00 Build 0)  -->
<svg version="1.1" id="linkedin" xmlns="http://www.w3.org/2000/svg" xmlns:xlink="http://www.w3.org/1999/xlink" x="0px" y="0px"
	 viewBox="0 0 104.5 104.5" style="enable-background:new 0 0 104.5 104.5;" xml:space="preserve">
<style type="text/css">
	.st0{fill:#FFFFFF;}
</style>
<path class="st0" d="M99,13.6c-1.1-3.9-4.2-7-8.1-8.1c-25.3-7.3-52-7.3-77.3,0c-3.9,1.1-7,4.2-8.1,8.1c-7.3,25.3-7.3,52,0,77.3
	c1.1,3.9,4.2,7,8.1,8.1c12.7,3.6,25.7,5.5,38.7,5.5s26-1.8,38.7-5.5c3.9-1.1,7-4.2,8.1-8.1C106.3,65.6,106.3,38.9,99,13.6z M92.3,89
	c-0.5,1.6-1.7,2.9-3.3,3.3c-24,6.9-49.4,6.9-73.5,0c-1.6-0.5-2.9-1.7-3.3-3.3c-6.9-24-6.9-49.4,0-73.5c0.5-1.6,1.7-2.9,3.3-3.3
	C27.5,8.7,39.9,7,52.2,7S76.9,8.7,89,12.2c1.6,0.5,2.9,1.7,3.3,3.3C99.2,39.5,99.2,64.9,92.3,89z"/>
<path id="in" class="st0" d="M58,44.3c1.7-1.8,3.8-2.8,6.3-3.1c2.6-0.3,5.1-0.1,7.5,0.9c2.2,0.9,3.7,2.5,4.7,4.7
	c0.8,1.9,1.2,3.8,1.3,5.9c0.1,2.8,0.1,5.5,0.2,8.3c0,4.1,0,8.2,0,12.3c0,0.4-0.1,0.5-0.5,0.5c-3,0-6,0-9,0c-0.4,0-0.5-0.1-0.5-0.5
	c0-5.2,0-10.4,0-15.6c0-1.4,0-2.8-0.4-4.2c-0.5-1.8-1.4-3.1-3.3-3.5s-3.7-0.2-5.2,1.1c-0.9,0.7-1.4,1.7-1.6,2.9
	c-0.2,1.3-0.4,2.6-0.4,3.9c0,5.1,0,10.3,0,15.4c0,0.6,0,0.6-0.6,0.6c-3,0-5.9,0-8.9,0c-0.5,0-0.5,0-0.5-0.6c0-10.3,0-20.6,0-30.8
	c0-0.6,0-0.6,0.6-0.6c2.8,0,5.6,0,8.4,0c0.6,0,0.6,0,0.6,0.6c0,1.1,0,2.2,0,3.3 M40.8,42.4c0-0.4-0.1-0.5-0.5-0.5c-3,0-5.9,0-8.9,0
	c-0.4,0-0.6,0.1-0.6,0.5c0,10.3,0,20.6,0,30.9c0,0.4,0.1,0.5,0.5,0.5c3,0,5.9,0,8.9,0c0.6,0,0.6,0,0.6-0.6c0-5.1,0-10.2,0-15.4
	C40.7,52.7,40.7,47.5,40.8,42.4z M35.8,37.6c3.2,0,5.9-2.6,5.8-5.8c0-3.3-2.6-5.8-5.8-5.8S30,28.6,30,31.8S32.5,37.6,35.8,37.6z"/>
</svg>
