<?xml version="1.0" standalone="no"?>
<!DOCTYPE svg PUBLIC "-//W3C//DTD SVG 20010904//EN"
 "http://www.w3.org/TR/2001/REC-SVG-20010904/DTD/svg10.dtd">
<svg version="1.0" xmlns="http://www.w3.org/2000/svg"
 width="1000.000000pt" height="1000.000000pt" viewBox="0 0 1000.000000 1000.000000"
 preserveAspectRatio="xMidYMid meet">
<metadata>
Created by potrace 1.11, written by Peter Selinger 2001-2013
</metadata>
<g transform="translate(0.000000,1000.000000) scale(0.100000,-0.100000)"
fill="#000000" stroke="none">
<path d="M4746 7618 c-4 -18 -8 -50 -9 -71 -1 -21 -8 -42 -16 -47 -9 -5 -15
-27 -16 -54 -2 -42 -15 -81 -15 -43 0 10 -10 27 -22 40 -13 12 -23 27 -23 32
0 6 -9 11 -21 13 -19 3 -21 -2 -20 -47 1 -33 7 -56 20 -70 11 -12 17 -23 14
-26 -12 -12 -68 -23 -73 -15 -12 20 -33 -4 -37 -42 -3 -31 0 -42 12 -45 8 -3
23 -15 32 -28 18 -23 17 -24 -10 -38 -20 -10 -33 -11 -45 -3 -12 8 -20 7 -29
-2 -23 -23 -16 -54 19 -85 18 -16 33 -34 33 -40 0 -5 -8 -3 -18 6 -36 32 -79
12 -48 -22 9 -10 13 -21 9 -24 -3 -4 0 -18 7 -32 16 -31 9 -41 -18 -24 -17 10
-23 10 -36 0 -20 -16 -20 -39 -2 -77 19 -40 28 -84 17 -84 -5 0 -11 -8 -13
-18 -3 -10 -11 -19 -19 -20 -67 -7 -64 -5 -64 -47 0 -35 -3 -40 -25 -43 -21
-4 -22 -2 -11 12 17 21 10 28 -30 32 -33 4 -69 29 -69 47 0 6 8 3 19 -7 17
-15 27 -15 71 2 8 3 20 6 25 6 6 1 11 11 13 23 4 26 -35 55 -77 57 -19 0 -27
5 -24 13 3 8 14 11 29 7 18 -5 24 -2 24 10 0 9 -6 16 -14 16 -7 0 -16 9 -19
20 -3 11 -9 20 -14 19 -30 -5 -40 2 -35 26 4 22 7 24 20 13 12 -10 16 -10 19
0 7 18 23 15 23 -5 0 -13 3 -14 12 -5 7 7 16 12 22 12 5 0 6 -3 3 -7 -12 -11
13 -31 33 -26 21 5 28 23 10 23 -5 0 -10 6 -10 13 0 8 -11 24 -25 37 -14 13
-25 20 -25 15 0 -5 -13 3 -28 18 -17 17 -46 30 -73 35 -32 6 -45 13 -48 27 -3
17 -1 18 14 5 15 -12 19 -12 30 3 10 15 14 15 31 2 27 -20 58 -20 50 1 -4 10
1 25 10 35 20 23 13 35 -28 43 -81 16 -108 27 -108 44 1 16 2 16 14 0 18 -24
41 -22 59 5 13 20 12 25 -14 58 -25 32 -27 38 -14 49 22 18 18 38 -7 42 -17 2
-22 10 -23 31 0 28 -21 46 -69 62 -15 4 -17 8 -8 17 18 18 14 39 -5 36 -12 -2
-19 4 -21 20 -4 27 -32 29 -32 2 0 -11 -9 -28 -20 -37 -11 -10 -20 -21 -20
-26 0 -11 -46 -48 -76 -62 -18 -8 -20 -14 -13 -32 4 -13 15 -23 23 -23 7 0 17
-7 20 -16 4 -12 2 -15 -9 -10 -18 7 -67 -42 -63 -64 2 -8 21 -19 42 -25 40
-12 38 -22 -6 -30 -12 -3 -33 -16 -47 -30 -20 -19 -23 -27 -13 -37 10 -10 19
-10 44 0 25 9 34 9 40 -1 18 -27 3 -42 -42 -43 -49 0 -138 -35 -107 -42 22 -5
21 -8 -3 -39 -36 -46 4 -60 54 -18 22 17 34 21 47 15 13 -7 18 -5 22 11 6 23
30 21 35 -3 3 -14 -17 -24 -67 -34 -8 -1 -17 -6 -20 -11 -3 -4 -15 -13 -26
-20 -11 -6 -19 -16 -18 -22 2 -6 -6 -15 -17 -21 -11 -6 -18 -16 -14 -21 9 -15
-16 -69 -32 -69 -8 0 -23 -6 -34 -12 -17 -11 -22 -10 -30 2 -5 8 -5 21 0 29 8
14 -25 71 -41 71 -4 0 -10 -20 -13 -45 -5 -29 -12 -45 -21 -45 -11 0 -13 -8
-8 -31 6 -31 5 -31 -26 -24 -20 4 -31 3 -31 -4 0 -6 -9 -11 -20 -11 -39 0 -16
-38 37 -60 15 -6 21 -16 18 -30 -7 -37 -16 -42 -67 -38 -37 4 -51 1 -55 -9 -4
-10 -9 -8 -17 9 -6 13 -26 30 -44 40 -46 23 -46 21 -12 58 36 39 41 88 10 108
-17 10 -21 10 -26 -3 -4 -10 -13 -13 -25 -10 -14 5 -21 0 -28 -18 -21 -54 -37
-39 -31 30 0 12 -6 36 -15 53 -9 17 -16 46 -15 63 3 49 1 57 -14 57 -8 0 -14
6 -13 13 1 32 -4 46 -16 42 -12 -5 -37 -52 -41 -78 -1 -6 -5 -18 -9 -25 -5 -7
-6 -21 -2 -32 3 -10 1 -29 -5 -41 -9 -15 -9 -24 -1 -32 18 -18 13 -44 -9 -50
-11 -3 -20 -12 -20 -21 0 -19 -23 -21 -39 -3 -6 8 -10 16 -8 18 1 2 -4 -2 -10
-10 -9 -10 -13 -11 -13 -3 0 19 -37 14 -42 -5 -6 -26 2 -54 13 -48 5 4 9 -1 9
-10 0 -27 29 -73 50 -80 11 -3 20 -13 20 -21 0 -17 -10 -17 -33 1 -11 7 -27
12 -38 10 -11 -2 -19 2 -19 10 0 18 -26 26 -39 11 -6 -7 -13 -36 -16 -64 -4
-45 -2 -55 17 -72 13 -12 30 -27 39 -35 9 -8 21 -15 27 -15 7 0 12 -10 12 -22
l0 -22 -20 22 c-26 28 -46 28 -53 0 -6 -21 -7 -21 -26 -4 -25 23 -45 13 -31
-15 9 -15 7 -21 -5 -25 -21 -8 -19 -31 5 -46 27 -17 25 -32 -7 -58 -19 -15
-36 -20 -55 -16 -19 4 -30 0 -36 -10 -8 -14 -10 -14 -17 2 -5 11 -9 40 -10 65
-2 47 -22 100 -40 106 -15 4 -42 -81 -50 -155 -6 -53 -10 -62 -24 -57 -64 27
-86 11 -77 -57 7 -52 -1 -59 -29 -28 -10 11 -14 20 -9 20 5 0 -4 9 -21 20 -16
11 -38 20 -47 20 -21 0 -30 13 -22 34 4 12 10 13 24 4 22 -14 50 -4 50 18 0 9
7 22 17 29 23 17 10 45 -20 43 -24 -2 -87 20 -87 30 0 3 9 15 20 27 l20 22
-25 27 c-23 25 -24 29 -10 49 22 32 18 47 -15 54 -23 4 -28 9 -20 18 8 9 7 17
-3 26 -7 8 -16 22 -20 33 -5 14 -15 17 -37 14 -34 -5 -36 -3 -14 20 15 14 14
17 -10 35 -14 10 -26 25 -26 33 0 21 -18 17 -25 -6 -3 -11 -15 -25 -26 -30
-11 -6 -19 -21 -19 -35 0 -14 -4 -25 -9 -25 -4 0 -20 -12 -35 -26 -14 -15 -26
-23 -26 -19 0 4 -7 2 -15 -5 -17 -14 -3 -50 20 -50 19 0 39 -36 25 -45 -5 -3
-10 -2 -10 3 0 5 -9 12 -19 15 -13 3 -26 -5 -42 -26 l-22 -31 33 -28 34 -28
-31 -11 c-35 -12 -67 -53 -59 -74 3 -10 14 -11 41 -5 30 7 35 6 31 -7 -3 -8
-6 -17 -6 -19 0 -2 -5 -4 -10 -4 -12 0 -71 -39 -82 -54 -12 -18 4 -36 31 -34
15 1 32 -1 39 -6 7 -4 12 -1 12 8 0 9 9 16 21 16 18 0 19 -2 6 -20 -8 -11 -36
-31 -62 -46 -61 -32 -77 -51 -70 -87 3 -19 0 -30 -10 -33 -8 -4 -15 -13 -15
-21 0 -10 6 -13 17 -9 13 5 11 0 -6 -18 -17 -18 -20 -26 -10 -26 8 0 20 -9 26
-20 11 -16 10 -21 -5 -30 -15 -10 -14 -11 5 -7 39 8 14 -22 -29 -35 -33 -10
-38 -15 -33 -32 4 -12 7 -29 6 -38 0 -10 5 -20 10 -24 6 -4 4 -13 -7 -25 -10
-11 -17 -37 -18 -64 -1 -30 -6 -47 -16 -50 -8 -3 -25 -21 -38 -40 -12 -19 -29
-35 -37 -35 -13 0 -13 -3 -3 -20 11 -17 10 -22 -2 -30 -8 -5 -11 -12 -7 -16 9
-9 6221 -9 6236 0 14 9 11 69 -5 91 -14 19 -34 12 -34 -11 0 -8 -4 -14 -10
-14 -5 0 -10 -7 -10 -15 0 -8 -7 -15 -16 -15 -14 0 -14 2 0 22 20 28 20 48 1
48 -13 0 -13 4 2 27 21 32 28 123 9 123 -7 0 -17 -5 -23 -11 -15 -15 -63 -3
-63 16 0 8 9 32 20 53 16 31 18 45 11 66 -12 30 -26 34 -36 9 -6 -17 -7 -17
-16 0 -17 29 -26 11 -21 -41 3 -38 1 -50 -12 -55 -23 -9 -31 10 -33 78 0 33
-2 76 -2 96 -1 19 -8 44 -17 55 -8 10 -13 14 -10 7 4 -6 1 -15 -5 -18 -6 -4
-13 2 -16 13 -6 25 -33 38 -33 17 0 -8 5 -15 11 -15 5 0 7 -5 3 -11 -9 -15
-74 49 -67 67 5 13 -17 26 -94 54 -18 7 -33 19 -33 26 0 17 16 18 26 2 5 -8
11 -6 20 7 11 15 16 16 29 5 12 -10 15 -10 15 4 0 13 5 16 20 11 14 -4 20 -2
20 8 0 9 5 17 12 19 7 3 0 15 -16 30 -18 16 -24 28 -17 32 8 5 8 13 1 27 -6
11 -16 17 -22 13 -6 -4 -18 3 -27 15 -9 12 -24 23 -32 24 -33 5 -95 69 -84 87
4 7 17 2 36 -14 16 -14 36 -23 44 -20 8 3 29 -3 48 -14 22 -14 37 -18 47 -12
13 8 11 12 -8 26 -22 15 -22 17 -7 34 15 17 14 19 -29 35 -25 10 -57 15 -71
13 -15 -3 -25 -1 -25 6 0 22 16 33 45 32 43 -1 38 22 -12 60 l-41 32 23 12
c32 17 40 42 19 57 -10 7 -12 13 -6 13 22 0 12 18 -13 22 -14 3 -30 -1 -37 -9
-7 -9 -14 -11 -21 -4 -7 7 0 19 21 38 36 31 40 49 15 58 -31 10 -73 53 -73 75
0 11 -4 20 -10 20 -5 0 -10 6 -10 13 0 6 -7 20 -15 30 -10 15 -18 17 -32 8
-10 -6 -14 -11 -9 -11 5 0 1 -9 -9 -20 -12 -13 -15 -27 -11 -45 5 -20 3 -25
-13 -25 -23 0 -36 -16 -21 -25 6 -4 5 -12 -5 -21 -8 -9 -15 -27 -15 -40 0 -21
-3 -23 -19 -14 -24 12 -51 13 -51 2 0 -5 9 -19 20 -32 19 -22 19 -23 0 -48
-11 -13 -20 -31 -20 -38 0 -19 24 -18 40 1 29 34 70 3 44 -34 -12 -17 -24 -21
-55 -19 -21 1 -44 -3 -51 -10 -7 -7 -22 -12 -35 -12 -26 0 -29 -16 -11 -55 12
-26 43 -34 51 -12 3 9 9 9 28 0 13 -7 33 -13 43 -15 19 -3 19 -4 2 -20 -10
-10 -27 -18 -38 -18 -12 0 -30 -8 -40 -17 -13 -11 -39 -17 -83 -19 -66 -2 -81
7 -48 31 11 8 13 17 7 26 -5 8 -7 22 -6 32 2 9 0 16 -5 15 -4 -1 -19 4 -31 11
-29 15 -29 15 -34 -29 -4 -30 -8 -34 -33 -35 -33 0 -46 24 -17 32 32 8 34 32
7 59 -32 32 -39 30 -50 -8 -12 -39 -29 -43 -33 -9 -2 13 -12 26 -23 28 -28 8
-24 17 16 39 33 17 35 22 31 59 -2 22 -7 48 -11 58 -5 12 -1 23 11 33 18 14
18 15 -1 12 -11 -2 -24 -13 -30 -26 -12 -27 -34 -35 -69 -26 -32 8 -32 14 -1
44 24 22 36 80 17 80 -15 0 -62 -45 -62 -59 0 -7 -9 -11 -22 -9 -15 2 -21 9
-19 18 11 36 8 90 -5 101 -8 6 -14 17 -14 24 0 8 -6 15 -12 18 -10 3 -10 9 0
26 16 28 15 56 -3 71 -9 7 -17 11 -18 9 -14 -20 -30 -72 -33 -109 -2 -25 -5
-59 -7 -76 -5 -55 -49 -87 -60 -44 -6 23 -15 25 -39 6 -16 -11 -16 -16 -2 -64
12 -40 23 -56 45 -67 16 -9 29 -20 29 -25 0 -13 -1 -13 -41 4 -79 32 -78 33
-76 -26 2 -47 5 -54 34 -74 29 -19 31 -23 18 -40 -10 -14 -14 -15 -15 -5 0 11
-4 10 -19 -3 -12 -11 -21 -14 -26 -7 -10 17 -45 14 -39 -3 6 -15 -24 -65 -38
-66 -5 0 -8 7 -8 16 0 11 -6 15 -20 11 -22 -6 -27 12 -10 43 8 15 6 21 -10 30
-11 6 -20 20 -20 30 0 32 -30 23 -37 -10 -6 -30 -27 -37 -29 -9 -2 29 -17 59
-29 59 -7 0 -27 -24 -44 -53 -31 -51 -34 -52 -77 -52 -47 0 -50 4 -33 36 17
32 -7 52 -53 46 -21 -3 -40 -2 -43 2 -6 11 41 51 60 51 8 0 19 9 25 19 5 11
19 23 30 26 24 8 26 37 4 70 -13 20 -20 23 -35 14 -10 -5 -19 -15 -19 -22 0
-13 -39 -42 -46 -34 -2 2 2 17 10 32 17 33 13 45 -13 40 -11 -2 -22 3 -25 11
-3 8 -2 14 3 14 4 0 20 11 34 24 14 13 31 26 38 28 8 3 6 10 -6 22 -15 15 -16
21 -6 37 18 30 4 41 -45 33 -27 -4 -56 -2 -74 6 -36 15 -39 27 -7 32 13 2 22
10 22 20 0 10 8 23 16 30 26 20 27 40 5 63 -22 22 -56 22 -56 0 0 -7 -7 -15
-15 -19 -8 -3 -15 -14 -15 -25 0 -23 -11 -33 -26 -23 -13 9 -12 75 1 84 6 4 4
21 -4 44 -7 21 -13 60 -12 87 1 41 -2 50 -20 54 -13 4 -20 13 -18 27 3 39 -1
46 -26 46 -20 0 -26 -7 -34 -38 -6 -20 -13 -62 -15 -92 -2 -30 -7 -65 -11 -76
-4 -12 -2 -31 4 -42 9 -17 6 -23 -17 -38 -44 -30 -60 -24 -53 19 1 10 -15 9
-37 -2 -21 -11 -102 -30 -102 -24 0 2 5 13 10 24 9 15 7 21 -5 25 -8 3 -15 12
-15 20 0 8 -10 14 -25 14 -22 0 -25 3 -19 25 4 15 2 25 -5 25 -6 0 -11 9 -11
20 0 13 -7 20 -20 20 -11 0 -20 -7 -20 -15 0 -9 -7 -18 -15 -21 -8 -4 -15 -15
-15 -26 0 -24 -20 -45 -55 -58 -34 -13 -32 -53 3 -58 12 -2 22 -10 22 -18 0
-17 -17 -19 -22 -2 -2 6 -15 -3 -28 -22 l-24 -33 30 -23 c16 -13 24 -24 17
-24 -18 0 -84 -61 -77 -71 3 -5 18 -9 35 -9 48 0 33 -17 -28 -31 -55 -13 -58
-16 -57 -44 0 -16 -6 -36 -13 -43 -7 -8 -11 -17 -8 -22 7 -11 42 -1 56 16 13
15 59 19 59 5 0 -13 -30 -35 -51 -36 -27 -2 -32 -10 -33 -53 -1 -56 -40 -75
-52 -24 -13 54 -53 78 -83 50 -11 -11 -11 -9 -2 9 6 13 17 22 24 20 7 -1 12 9
12 25 1 15 9 36 20 48 14 16 16 23 7 32 -10 10 -17 10 -32 0 -17 -10 -21 -10
-27 3 -3 9 -1 21 6 28 21 21 12 56 -19 72 -16 9 -30 12 -30 8 0 -5 -5 -1 -10
7 -6 10 -5 22 5 36 17 26 10 36 -21 28 -18 -5 -24 -2 -24 10 0 9 4 16 9 16 21
0 21 35 -1 51 -13 11 -22 28 -23 46 0 23 -4 27 -21 25 -16 -2 -24 5 -32 26 -9
25 -8 29 6 28 22 -1 27 37 7 54 -8 7 -15 21 -15 31 0 22 -3 22 -49 9 l-34 -9
21 22 c63 69 57 167 -10 149 -10 -2 -20 -13 -24 -24 -10 -31 -15 -15 -28 77
-6 47 -15 84 -19 83 -5 -2 -15 12 -22 30 -8 17 -18 32 -23 32 -6 0 -13 -15
-16 -32z m-188 -493 c-3 -3 -9 2 -12 12 -6 14 -5 15 5 6 7 -7 10 -15 7 -18z
m-1729 -872 c0 -5 -4 -17 -9 -28 -8 -18 -9 -17 -9 8 -1 15 4 27 9 27 6 0 10
-3 9 -7z"/>
<path d="M2083 5214 c-67 -23 -106 -93 -98 -176 7 -63 43 -101 132 -138 42
-18 88 -39 101 -48 57 -37 63 -119 12 -164 -25 -23 -40 -28 -81 -28 -43 0 -55
5 -80 29 -21 21 -29 39 -29 64 0 28 -4 35 -17 32 -10 -2 -25 -4 -34 -4 -13 -1
-16 -9 -14 -33 10 -99 74 -151 183 -149 101 2 172 68 172 160 0 90 -42 137
-163 187 -89 36 -117 65 -117 116 0 72 36 103 114 98 63 -3 96 -36 96 -95 0
-20 4 -23 27 -19 15 3 31 11 35 17 18 29 -24 112 -71 140 -39 23 -118 28 -168
11z"/>
<path d="M2921 5220 c-46 -11 -83 -39 -104 -82 -15 -30 -18 -64 -18 -227 0
-210 7 -244 62 -283 35 -26 129 -38 175 -22 46 16 92 60 102 98 4 16 7 115 7
221 -1 177 -3 194 -22 226 -38 61 -117 88 -202 69z m120 -73 c40 -30 42 -46
40 -325 -1 -102 -2 -104 -31 -134 -29 -28 -35 -30 -86 -26 -39 3 -62 11 -77
27 -21 21 -22 29 -22 222 l0 201 28 24 c22 19 39 24 80 24 29 0 59 -6 68 -13z"/>
<path d="M5196 5215 c-95 -33 -106 -66 -106 -306 0 -156 3 -197 16 -226 19
-38 77 -83 110 -83 15 0 28 -15 50 -62 21 -46 35 -63 52 -65 32 -4 37 19 13
66 -24 47 -26 61 -8 61 24 0 96 70 105 103 5 18 8 118 8 222 -1 176 -3 193
-23 225 -12 19 -35 43 -52 53 -39 23 -117 28 -165 12z m155 -86 c17 -21 19
-45 19 -217 l0 -194 -29 -29 c-24 -24 -38 -29 -76 -29 -103 0 -113 22 -111
261 2 202 4 211 59 234 42 17 115 3 138 -26z"/>
<path d="M5863 5220 c-80 -18 -131 -94 -119 -177 9 -68 39 -101 125 -140 116
-52 123 -56 139 -81 19 -29 20 -84 3 -116 -17 -31 -51 -46 -107 -46 -69 0
-117 57 -105 124 2 10 -50 -1 -62 -13 -14 -14 4 -81 30 -112 38 -45 78 -61
145 -60 74 1 128 29 155 80 25 46 29 108 9 154 -13 32 -85 97 -108 97 -5 0
-38 14 -73 31 -75 36 -97 70 -84 127 13 59 47 78 129 73 35 -3 80 -54 80 -91
0 -28 2 -30 28 -24 39 9 41 14 28 65 -13 51 -54 94 -96 103 -54 12 -86 13
-117 6z"/>
<path d="M7790 5222 c-34 -5 -87 -47 -106 -83 -12 -25 -15 -65 -12 -239 3
-194 4 -211 24 -237 35 -47 78 -66 146 -64 83 2 131 29 156 90 17 40 19 70 17
237 -1 175 -3 193 -22 225 -12 19 -35 42 -52 52 -29 17 -104 27 -151 19z m116
-74 c38 -18 44 -50 44 -244 l0 -186 -29 -29 c-24 -24 -38 -29 -76 -29 -105 0
-115 25 -112 264 2 175 3 187 24 207 34 34 98 42 149 17z"/>
<path d="M2383 5207 c-3 -4 -2 -18 1 -31 5 -19 12 -22 61 -23 30 -1 61 -1 68
-2 10 -1 13 -55 12 -267 0 -169 3 -268 10 -272 5 -4 19 -7 30 -7 19 0 20 8 23
273 2 207 5 272 15 273 6 1 38 1 70 1 l57 0 0 32 0 33 -171 -1 c-94 0 -173 -4
-176 -9z"/>
<path d="M3256 5210 c-1 -3 -2 -140 -2 -305 l1 -300 135 0 c74 0 141 1 148 3
6 2 12 17 12 33 l0 29 -115 0 -115 0 -2 273 -3 272 -28 0 c-16 1 -29 -2 -31
-5z"/>
<path d="M3626 5211 c-6 -11 -3 -601 3 -602 3 0 81 -2 174 -2 l167 -2 0 33 0
32 -140 0 c-77 0 -140 3 -141 8 -1 11 -1 165 0 184 1 15 15 18 113 20 l112 3
1 28 c1 15 -3 27 -9 28 -6 0 -57 0 -113 0 l-103 0 -1 54 c-1 70 -1 120 0 143
1 15 14 17 141 16 l140 -1 0 31 0 31 -170 1 c-94 1 -172 -2 -174 -5z"/>
<path d="M4067 5213 c-3 -5 -5 -141 -6 -304 l-1 -297 24 -4 c14 -3 29 -2 34 1
6 3 9 89 8 204 -1 109 2 203 6 210 6 9 8 9 8 0 0 -12 210 -384 231 -409 6 -7
17 -10 25 -7 12 4 14 55 14 308 l0 303 -32 -2 -33 -2 0 -207 c0 -114 -2 -207
-5 -207 -3 0 -59 95 -125 210 -107 190 -134 226 -148 203z"/>
<path d="M4486 5211 c-2 -3 -3 -17 -2 -31 1 -24 4 -25 71 -26 l70 -1 1 -264
c1 -145 2 -269 3 -275 0 -6 13 -10 29 -9 l27 1 5 274 5 275 67 -1 c54 -1 67 2
71 15 11 45 1 48 -176 48 -92 0 -169 -3 -171 -6z"/>
<path d="M4909 5206 c0 -14 0 -531 0 -571 1 -28 4 -31 31 -30 l30 0 0 305 0
305 -30 1 c-16 1 -30 -3 -31 -10z"/>
<path d="M6142 5184 l-1 -32 63 3 c35 1 68 0 73 -4 5 -3 9 -127 8 -275 l0
-270 30 0 30 0 5 274 5 275 68 -2 67 -2 0 33 0 32 -173 0 -174 -1 -1 -31z"/>
<path d="M6559 5208 c-4 -44 -1 -462 5 -489 14 -77 72 -119 164 -120 83 -1
147 37 168 101 8 27 13 509 4 511 -3 1 -17 2 -32 3 l-28 3 0 -249 0 -250 -30
-30 c-29 -28 -35 -30 -86 -26 -39 3 -62 11 -77 27 -21 21 -22 29 -24 267 -1
135 -5 249 -8 254 -7 11 -55 9 -56 -2z"/>
<path d="M7026 5211 c-2 -3 -4 -139 -4 -303 0 -343 -18 -305 138 -302 108 1
145 15 182 66 22 32 23 39 23 240 0 194 -1 208 -21 235 -41 55 -76 67 -201 68
-63 1 -115 -1 -117 -4z m232 -70 c41 -22 46 -47 47 -230 1 -234 -8 -247 -159
-239 l-59 3 -1 238 c-1 136 3 238 8 240 23 8 144 -1 164 -12z"/>
<path d="M7489 5201 c-1 -9 -2 -145 -3 -303 -1 -271 0 -287 17 -292 47 -12 47
-12 47 308 l0 301 -30 1 c-21 1 -30 -3 -31 -15z"/>
<path d="M1918 4330 c-1 -5 -1 -32 0 -60 4 -45 6 -50 28 -50 16 0 24 6 25 18
6 103 6 102 -22 102 -15 0 -29 -4 -31 -10z"/>
<path d="M2025 4253 c0 -87 0 -87 25 -87 25 0 25 1 28 87 l3 87 -28 0 -28 0 0
-87z"/>
<path d="M2130 4191 l0 -151 24 0 c13 0 26 6 28 13 2 6 3 73 3 147 l0 135 -28
3 -27 3 0 -150z"/>
<path d="M2237 4333 c-2 -5 -3 -143 -3 -308 l1 -300 28 -1 27 -1 0 308 0 309
-24 0 c-14 0 -27 -3 -29 -7z"/>
<path d="M2340 3786 l0 -556 24 0 c13 0 26 6 28 13 2 6 3 255 3 552 l-1 540
-27 3 -27 3 0 -555z"/>
<path d="M2445 3843 l0 -497 25 0 25 0 3 497 2 497 -28 0 -27 0 0 -497z"/>
<path d="M2550 3990 l0 -350 25 0 c14 0 26 3 26 8 1 4 2 161 3 350 l1 342 -27
0 -28 0 0 -350z"/>
<path d="M2655 4015 c0 -269 2 -327 14 -334 39 -25 41 -12 41 330 l0 329 -27
0 -28 0 0 -325z"/>
<path d="M2762 4053 l3 -288 22 -1 c12 -1 24 4 26 10 1 6 3 135 3 286 l-1 275
-28 3 -27 3 2 -288z"/>
<path d="M2865 3950 l-1 -390 28 0 28 0 0 390 0 390 -28 0 -27 0 0 -390z"/>
<path d="M2970 3982 l0 -359 28 5 28 4 -1 354 0 354 -27 0 -28 0 0 -358z"/>
<path d="M3075 3883 l0 -458 28 -3 27 -3 0 460 0 461 -28 0 -27 0 0 -457z"/>
<path d="M3182 3733 l3 -608 25 0 25 0 0 605 0 605 -28 3 -27 3 2 -608z"/>
<path d="M3286 3633 l0 -708 27 -3 27 -3 0 710 0 711 -27 0 -28 0 1 -707z"/>
<path d="M3390 3721 l0 -621 28 0 28 0 0 618 -1 617 -27 3 -28 3 0 -620z"/>
<path d="M3490 3841 c0 -434 2 -500 15 -505 41 -15 41 -18 43 504 l1 500 -30
0 -29 0 0 -499z"/>
<path d="M3604 4008 l1 -331 26 -4 26 -3 0 335 -1 335 -27 0 -27 0 2 -332z"/>
<path d="M3709 4298 c0 -58 0 -1132 0 -1185 1 -39 3 -43 26 -43 19 0 25 5 26
23 0 27 0 1181 0 1220 -1 22 -6 27 -26 27 -23 0 -25 -4 -26 -42z"/>
<path d="M3813 3763 l2 -578 26 -3 27 -3 1 580 0 581 -29 0 -29 0 2 -577z"/>
<path d="M3919 4313 c-3 -198 1 -1266 5 -1271 4 -3 15 -6 26 -7 17 -1 20 5 21
39 1 53 0 1214 0 1244 -1 17 -7 22 -26 22 -20 0 -25 -5 -26 -27z"/>
<path d="M4024 3478 l1 -863 26 -3 26 -3 1 865 0 866 -27 0 -27 0 0 -862z"/>
<path d="M4130 3390 l0 -950 25 0 c17 0 25 6 26 18 1 21 1 1852 0 1870 -1 6
-12 12 -26 12 l-25 0 0 -950z"/>
<path d="M4235 4328 c-2 -7 -3 -386 -2 -843 l2 -830 25 0 25 0 3 843 2 842
-25 0 c-14 0 -27 -6 -30 -12z"/>
<path d="M4340 3806 l0 -533 25 0 c14 0 25 5 26 11 3 36 4 1024 1 1039 -3 10
-14 17 -28 17 l-24 0 0 -534z"/>
<path d="M4449 4333 c-1 -5 -2 -169 -3 -365 l-1 -358 28 0 27 0 0 365 0 365
-25 0 c-14 0 -26 -3 -26 -7z"/>
<path d="M4550 3905 l0 -436 28 4 27 4 1 431 0 432 -28 0 -28 0 0 -435z"/>
<path d="M4658 4328 c-3 -11 -2 -1215 1 -1255 1 -7 12 -13 26 -13 l25 0 0 640
0 640 -24 0 c-13 0 -26 -6 -28 -12z"/>
<path d="M4762 3523 l3 -818 25 0 25 0 0 815 0 815 -28 3 -27 3 2 -818z"/>
<path d="M4869 4338 c-1 -2 -2 -452 -2 -1001 l-2 -997 28 0 27 0 0 1000 0
1000 -25 0 c-14 0 -25 -1 -26 -2z"/>
<path d="M4965 3475 l0 -865 27 0 28 0 0 865 0 865 -28 0 -27 0 0 -865z"/>
<path d="M5070 3641 c0 -679 1 -701 19 -701 10 0 23 6 28 13 5 7 9 296 8 697
l0 685 -28 3 -27 3 0 -700z"/>
<path d="M5177 4333 c-2 -5 -3 -282 -3 -618 l1 -610 28 -3 27 -3 0 620 0 621
-24 0 c-14 0 -27 -3 -29 -7z"/>
<path d="M5280 3997 l0 -344 23 3 c12 1 24 3 27 3 3 1 5 153 5 339 l0 337 -27
3 -28 3 0 -344z"/>
<path d="M5389 4338 c-1 -2 -2 -191 -3 -420 l-1 -417 22 -4 c12 -2 25 -2 28 1
3 3 5 194 5 424 l0 418 -25 0 c-14 0 -26 -1 -26 -2z"/>
<path d="M5490 3721 l0 -620 28 1 27 1 1 618 0 619 -28 0 -28 0 0 -619z"/>
<path d="M5598 4328 c-2 -7 -4 -375 -3 -817 l0 -804 28 -4 27 -4 0 821 0 820
-24 0 c-13 0 -26 -6 -28 -12z"/>
<path d="M5700 3671 l0 -671 28 0 27 0 0 668 0 667 -27 3 -28 3 0 -670z"/>
<path d="M5809 4328 c0 -7 -2 -264 -2 -570 l-2 -558 28 0 27 0 0 570 0 570
-25 0 c-14 0 -25 -6 -26 -12z"/>
<path d="M5910 3481 l0 -858 28 1 27 1 1 858 0 857 -28 0 -28 0 0 -859z"/>
<path d="M6019 4328 c-1 -17 -1 -1377 0 -1404 1 -15 7 -20 24 -19 l22 2 3 716
2 717 -25 0 c-14 0 -25 -6 -26 -12z"/>
<path d="M6121 3727 l1 -614 26 2 27 1 0 612 1 612 -28 0 -28 0 1 -613z"/>
<path d="M6229 4318 c-1 -30 -1 -805 0 -840 1 -23 6 -28 26 -28 14 0 25 3 26
8 0 4 1 204 2 445 l2 437 -27 0 c-22 0 -28 -5 -29 -22z"/>
<path d="M6331 4001 c0 -289 2 -340 14 -345 43 -16 43 -12 43 345 l0 339 -28
0 -29 0 0 -339z"/>
<path d="M6439 4328 c-1 -17 -1 -843 0 -890 1 -34 4 -38 26 -38 22 0 25 4 25
40 0 22 1 222 1 445 0 223 -1 416 -1 430 0 20 -5 25 -25 25 -14 0 -25 -6 -26
-12z"/>
<path d="M6548 4338 c-1 -2 -2 -155 -3 -340 l-2 -338 29 0 c27 0 28 2 29 48 0
52 0 613 -1 625 0 6 -48 11 -52 5z"/>
<path d="M6648 4198 c-2 -79 -1 -278 2 -443 5 -293 5 -300 25 -297 11 2 22 6
24 8 2 2 4 199 4 437 l0 432 -26 3 -26 3 -3 -143z"/>
<path d="M6754 3785 c0 -305 4 -556 8 -556 46 -7 43 -46 45 554 l2 557 -28 0
-28 0 1 -555z"/>
<path d="M6858 3718 c-2 -343 -1 -659 2 -703 5 -74 7 -80 28 -81 16 -1 22 4
23 20 1 28 1 1323 0 1359 -1 22 -6 27 -26 27 l-25 0 -2 -622z"/>
<path d="M6965 3745 l0 -595 27 0 28 0 0 595 0 595 -28 0 -27 0 0 -595z"/>
<path d="M7070 3895 l0 -446 27 3 27 3 0 440 0 440 -27 3 -27 3 0 -446z"/>
<path d="M7179 4338 c-1 -2 -3 -173 -3 -380 l-2 -378 28 0 28 0 0 380 0 380
-25 0 c-14 0 -26 -1 -26 -2z"/>
<path d="M7280 4005 l0 -335 25 0 c14 0 26 6 26 13 1 6 2 157 3 334 l1 323
-27 0 -28 0 0 -335z"/>
<path d="M7386 3983 c1 -197 2 -364 3 -370 0 -7 12 -13 26 -13 l25 0 0 370 0
370 -28 0 -27 0 1 -357z"/>
<path d="M7490 3821 l0 -521 24 0 c14 0 25 7 28 18 2 9 4 242 3 517 l0 500
-27 3 -28 3 0 -520z"/>
<path d="M7595 3705 c0 -349 3 -636 7 -636 46 -8 43 -51 46 634 l2 637 -27 0
-28 0 0 -635z"/>
<path d="M7700 3854 l0 -485 27 3 28 3 0 470 c1 259 -1 476 -3 483 -2 6 -15
12 -28 12 l-24 0 0 -486z"/>
<path d="M7809 4333 c-1 -5 -2 -158 -3 -340 l-1 -333 28 0 27 0 0 340 0 340
-25 0 c-14 0 -25 -3 -26 -7z"/>
<path d="M7910 4186 l0 -156 28 0 28 0 -1 153 0 152 -27 3 -28 3 0 -155z"/>
<path d="M8015 4245 c0 -52 2 -95 5 -96 52 -9 50 -13 50 93 l0 98 -27 0 -28 0
0 -95z"/>
</g>
</svg>
